<?xml version="1.0" standalone="no"?><!DOCTYPE svg PUBLIC "-//W3C//DTD SVG 1.1//EN" "http://www.w3.org/Graphics/SVG/1.1/DTD/svg11.dtd"><svg t="1533129173275" class="icon" style="" viewBox="0 0 1024 1024" version="1.1" xmlns="http://www.w3.org/2000/svg" p-id="7936" xmlns:xlink="http://www.w3.org/1999/xlink" width="200" height="200"><defs><style type="text/css"></style></defs><path d="M838.4 663.6c-23.6-32.8-51.9-61.8-84-86.2-24.1-18.3-50.1-33.7-77.6-46.1 50-45.6 79.2-110.6 79.2-179.2 0-64.8-25.2-125.6-71-171.4s-106.7-71-171.4-71c-64.8 0-125.6 25.2-171.4 71s-71 106.7-71 171.4c0 68 28.7 132.6 78 178.2-27.7 12.3-54 27.7-78.4 46-32.5 24.4-61 53.4-84.8 86.3-49.4 68.3-75.8 149-76.2 233.6v0.1c0 1 0.1 2 0.2 2.9 0 0.2 0.1 0.5 0.1 0.7 0.2 0.9 0.4 1.7 0.7 2.6 0.1 0.3 0.2 0.6 0.3 0.8 0.2 0.4 0.4 0.9 0.6 1.3 0.2 0.4 0.4 0.7 0.6 1 0.3 0.5 0.6 1 1 1.4 0.5 0.7 1.1 1.3 1.7 1.9l0.4 0.4c0.7 0.7 1.5 1.3 2.3 1.9 0.2 0.2 0.5 0.3 0.7 0.5s0.5 0.3 0.8 0.4c0.5 0.3 1 0.5 1.6 0.8 1.9 0.8 3.9 1.3 6 1.4h770.4c2.1-0.1 4.1-0.6 6-1.4 0.5-0.2 1.1-0.5 1.6-0.8 0.3-0.1 0.5-0.3 0.8-0.4 0.3-0.2 0.5-0.3 0.7-0.5 0.8-0.6 1.6-1.2 2.3-1.9 0.1-0.1 0.3-0.2 0.4-0.4 0.6-0.6 1.2-1.2 1.7-1.9 0.3-0.5 0.7-0.9 1-1.4 0.2-0.3 0.4-0.7 0.6-1 0.2-0.4 0.4-0.9 0.6-1.3 0.1-0.3 0.2-0.6 0.3-0.8 0.3-0.8 0.5-1.7 0.7-2.6 0.1-0.2 0.1-0.5 0.1-0.7 0.2-1 0.2-1.9 0.2-2.9v-0.1c-0.7-84.1-26.8-164.5-75.8-232.6zM307.1 352.2c0-113.8 92.6-206.4 206.4-206.4s206.4 92.6 206.4 206.4c0 67.4-33 130.7-88.4 169.4-0.1 0.1-0.2 0.1-0.3 0.2-0.1 0.1-0.2 0.2-0.3 0.2-34.6 24-75.2 36.6-117.4 36.6-42.8 0-83.8-13-118.7-37.5-0.1 0-0.1-0.1-0.1-0.1-0.1-0.1-0.2-0.1-0.3-0.2-54.7-38.7-87.3-101.7-87.3-168.6z m-160.8 526c7.8-144 100.3-271.1 235.6-322.4 39.2 25.4 84.5 38.8 131.7 38.8 46.6 0 91.5-13.1 130.4-38 134 51.8 225.6 178.6 233.5 321.6H146.3z" p-id="7937"></path></svg>