<?xml version="1.0" standalone="no"?><!DOCTYPE svg PUBLIC "-//W3C//DTD SVG 1.1//EN" "http://www.w3.org/Graphics/SVG/1.1/DTD/svg11.dtd"><svg t="1533129152118" class="icon" style="" viewBox="0 0 1024 1024" version="1.1" xmlns="http://www.w3.org/2000/svg" p-id="7120" xmlns:xlink="http://www.w3.org/1999/xlink" width="200" height="200"><defs><style type="text/css"></style></defs><path d="M953.74389 920.103722 695.576015 661.821237c72.122621-85.684498 103.216803-203.812919 73.1623-320.281537C719.414957 150.398382 523.794627 35.0861 332.645123 84.353177c-92.586698 23.904433-170.331363 82.430384-218.906685 164.786067-48.575322 82.374102-62.163805 178.720428-38.269605 271.307126 23.895223 92.586698 82.411965 170.340573 164.786067 218.916918 55.8234 32.91976 118.071116 49.77259 181.236737 49.77259 30.011524 0 60.237943-3.815909 90.071412-11.502985 61.405535-15.852036 114.972545-46.820352 157.788699-87.868233l257.308297 257.423931c3.730974 3.741207 8.641821 5.611811 13.542434 5.611811s9.801227-1.870604 13.542434-5.611811C961.225281 939.706175 961.225281 927.586137 953.74389 920.103722zM501.984902 740.522694c-82.683141 21.360494-168.732959 9.202593-242.277976-34.17331-73.55525-43.375903-125.806287-112.787786-147.147338-195.480136-21.342074-82.673931-9.202593-168.713516 34.17331-242.259556 43.385113-73.564459 112.806205-125.824707 195.489346-147.147338 26.690896-6.9022 53.466726-10.194176 79.830163-10.194176 142.275377 0 272.429693 95.860255 309.59515 239.8466 28.072359 108.795868-3.621481 219.2147-74.491575 296.393477-0.541329 0.434905-1.067308 0.89744-1.569752 1.39886-0.784876 0.784876-1.467421 1.629103-2.087545 2.505054C613.661378 693.369767 562.016137 725.037001 501.984902 740.522694z" p-id="7121" fill="#707070"></path><path d="M532.9788 211.880665c-27.935236-16.45988-60.640102-21.061688-92.044346-12.980639-10.241248 2.656503-16.403598 13.093203-13.757329 23.342638 2.63706 10.250458 13.065574 16.366759 23.333428 13.766538 44.413536-11.466146 89.818655 15.337313 101.284801 59.72322 2.225691 8.641821 10.006911 14.365172 18.536168 14.365172 1.581008 0 3.188622-0.187265 4.797259-0.617054 10.240225-2.63706 16.403598-13.074783 13.757329-23.324218C580.777433 254.751055 560.923246 228.358965 532.9788 211.880665z" p-id="7122" fill="#707070"></path></svg>