<?xml version="1.0" standalone="no"?><!DOCTYPE svg PUBLIC "-//W3C//DTD SVG 1.1//EN" "http://www.w3.org/Graphics/SVG/1.1/DTD/svg11.dtd"><svg t="1533129525402" class="icon" style="" viewBox="0 0 1024 1024" version="1.1" xmlns="http://www.w3.org/2000/svg" p-id="11268" xmlns:xlink="http://www.w3.org/1999/xlink" width="200" height="200"><defs><style type="text/css"></style></defs><path d="M865.81784 116.828822l-45.025473-35.30304H116.794541l-36.836976 45.025472 1.100054 91.579765h784.760221z" fill="#1296db" p-id="11269"></path><path d="M918.003386 686.270069h46.048779v50.650587h-46.048779zM964.052165 643.293255h-46.048779V263.156492c0-12.131295-9.869788-22.001083-22.001084-22.001083H79.957565v-46.048779h816.043714c37.522592 0 68.049862 30.527271 68.049862 68.049862v380.136763z" fill="#1296db" p-id="11270"></path><path d="M896.002302 968.689277H124.983038c-37.522592 0-68.049862-30.527271-68.049863-68.049863V126.551254c0-37.522592 30.527271-68.049862 68.049863-68.049862h644.136459v46.048779H124.983038c-12.131295 0-22.001083 9.869788-22.001084 22.001083v774.08816c0 12.131295 9.869788 22.001083 22.001084 22.001084h771.018241c12.131295 0 22.001083-9.869788 22.001083-22.001084V784.502347h46.048779v116.137067c0.001023 37.522592-30.526247 68.049862-68.048839 68.049863z" fill="#1296db" p-id="11271"></path><path d="M244.162394 377.757576h532.659529v46.048779H244.162394zM244.162394 555.803645h307.031768v46.048779H244.162394z" fill="#1296db" p-id="11272"></path><path d="M888.842229 241.155409H58.034253V116.727515h46.048779v78.379115h738.710418v-68.555376c0-12.131295-9.869788-22.001083-22.001083-22.001083H552.701492v-46.048779h268.089851c37.522592 0 68.049862 30.527271 68.049863 68.049862V241.155409z" fill="#1296db" p-id="11273"></path></svg>