<?xml version="1.0" standalone="no"?><!DOCTYPE svg PUBLIC "-//W3C//DTD SVG 1.1//EN" "http://www.w3.org/Graphics/SVG/1.1/DTD/svg11.dtd"><svg t="1533367044437" class="icon" style="" viewBox="0 0 1024 1024" version="1.1" xmlns="http://www.w3.org/2000/svg" p-id="1842" xmlns:xlink="http://www.w3.org/1999/xlink" width="64" height="64"><defs><style type="text/css"></style></defs><path d="M512 7.211268c-279.076056 0-504.788732 225.712676-504.788732 504.788732s225.712676 504.788732 504.788732 504.788732 504.788732-225.712676 504.788732-504.788732-225.712676-504.788732-504.788732-504.788732z m0 966.309859c-254.557746 0-461.521127-206.96338-461.521127-461.521127s206.96338-461.521127 461.521127-461.521127 461.521127 206.96338 461.521127 461.521127-206.96338 461.521127-461.521127 461.521127z" fill="#F0B941" p-id="1843"></path><path d="M438.44507 266.095775c-57.690141 0-104.56338 46.873239-104.56338 104.56338s46.873239 104.56338 104.56338 104.56338 104.56338-46.873239 104.563381-104.56338-46.873239-104.56338-104.563381-104.56338z m0 166.580281c-33.892958 0-62.016901-27.402817-62.016901-62.016901 0-33.892958 27.402817-62.016901 62.016901-62.016901 33.892958 0 62.016901 27.402817 62.016902 62.016901-0.721127 33.892958-28.123944 62.016901-62.016902 62.016901z" fill="#F0B941" p-id="1844"></path><path d="M540.84507 500.461972c-29.566197-25.239437-68.507042-40.383099-110.332394-40.383099-95.188732 0-171.628169 77.160563-171.628169 171.628169 0 55.526761 50.478873 46.873239 140.619718 45.430986 21.633803 0.721127 27.402817-37.498592 0-37.498591-47.594366 0-103.121127 1.442254-103.121126-7.932395 0-74.276056 59.853521-134.129577 134.129577-134.129577 32.450704 0 69.228169 14.422535 85.092958 30.287324s55.526761-2.16338 25.239436-27.402817z" fill="#F0B941" p-id="1845"></path><path d="M449.983099 659.109859m-19.470423 0a19.470423 19.470423 0 1 0 38.940845 0 19.470423 19.470423 0 1 0-38.940845 0Z" fill="#F0B941" p-id="1846"></path><path d="M667.76338 612.23662h-59.853521c-5.047887 0-9.374648-4.326761-9.374648-9.374648v-37.498592c0-5.047887 4.326761-9.374648 9.374648-9.374648h59.853521c5.047887 0 9.374648 4.326761 9.374648 9.374648v37.498592c0 5.047887-4.326761 9.374648-9.374648 9.374648z" fill="#F0B941" p-id="1847"></path><path d="M757.904225 757.904225h-239.414084c-7.211268 0-12.980282-5.769014-12.980282-12.980281V569.690141c0-7.211268 5.769014-12.980282 12.980282-12.980282h53.36338c7.211268 0 12.980282 5.769014 12.980282 12.980282v45.430986c0 7.211268 5.769014 12.980282 12.980282 12.980281h81.487323c7.211268 0 12.980282-5.769014 12.980282-12.980281V569.690141c0-7.211268 5.769014-12.980282 12.980282-12.980282h51.921127c7.211268 0 12.980282 5.769014 12.980281 12.980282v175.233803c1.442254 7.211268-4.326761 12.980282-12.259155 12.980281z" fill="#F0B941" p-id="1848"></path></svg>