<?xml version="1.0" standalone="no"?><!DOCTYPE svg PUBLIC "-//W3C//DTD SVG 1.1//EN" "http://www.w3.org/Graphics/SVG/1.1/DTD/svg11.dtd"><svg t="1533368184001" class="icon" style="" viewBox="0 0 1024 1024" version="1.1" xmlns="http://www.w3.org/2000/svg" p-id="8614" xmlns:xlink="http://www.w3.org/1999/xlink" width="64" height="64"><defs><style type="text/css"></style></defs><path d="M512 512m-445 0a445 445 0 1 0 890 0 445 445 0 1 0-890 0Z" fill="#B9B6E8" p-id="8615"></path><path d="M712.5 564.4c40.8 40.9 63.2 95.2 63.2 153 0 7.1-5.8 12.9-12.9 12.9-7.1 0-12.9-5.8-12.9-12.9 0-50.8-19.8-98.7-55.7-134.7-5-5-5-13.2 0-18.2 5.1-5.2 13.3-5.2 18.3-0.1zM233.8 676.4c0 7.1 5.8 12.9 12.9 12.9 7.1 0 12.9-5.8 12.9-12.9 0-88.1 67.3-159.8 150.1-159.8 7.1 0 12.9-5.8 12.9-12.9 0-7.1-5.8-12.9-12.9-12.9-46.8 0-84.9-40.7-84.9-90.7s38.1-90.7 84.9-90.7c7.1 0 12.9-5.8 12.9-12.9 0-7.1-5.8-12.9-12.9-12.9C348.6 283.5 299 335.8 299 400c0 42.7 21.9 80.1 54.6 100.4v0.1c-69.6 24.8-119.8 94.3-119.8 175.9z m171.7-159.9h0.7-0.7z m4.2-25.7c-0.4 0-0.7 0-1.1 0.1h-0.8c0.6-0.1 1.3-0.1 1.9-0.1z m0 25.8c-1.1 0-2.2 0-3.3-0.1h0.9c0.4 0 0.8 0 1.2-0.1 0.5 0.1 0.9 0.1 1.2 0.2 4.9-0.1 9.1-2.8 11.3-6.7-2.1 3.9-6.4 6.7-11.3 6.7z" fill="#FFFFFF" p-id="8616"></path><path d="M342.5 717.3c0 7.1 5.8 12.9 12.9 12.9 7.1 0 12.9-5.8 12.9-12.9 0-105.2 85.6-190.8 189.9-190.9 1.4 0.1 2.7 0 4-0.3 70.9-1.6 128.4-57.8 131.9-128.3v-0.8c0-0.9 0.1-1.7 0.1-2.6v-3.1-0.3-0.9c-0.5-69.6-53.5-126.6-121.3-133.5-4.5-0.5-9.1-0.7-13.8-0.7-4.7 0-9.3 0.2-13.8 0.7-67.8 6.9-120.8 64-121.3 133.5v0.9c0 1.4 0 2.9 0.1 4.3v1.1c0 1.2 0.1 2.4 0.2 3.5 0 0.3 0 0.5 0.1 0.8 0.1 1.5 0.2 3 0.4 4.4v0.1c0.2 1.5 0.3 2.9 0.5 4.3 0 0.1 0 0.3 0.1 0.4 6.2 43.4 32.9 80.1 70 100-88.5 27.7-152.9 110.2-152.9 207.4z m230.4-434.7c53.8 6.8 95.6 52.8 95.6 108.5 0 56.3-42.8 102.8-97.5 108.7-3.9 0.4-7.8 0.6-11.8 0.6-4.7 0-9.4-0.3-13.9-0.9-51.9-6.6-92.6-49.8-95.3-102.8-0.1-1.9-0.1-3.7-0.1-5.6 0-2.7 0.1-5.4 0.3-8.1 3.8-51.4 43.1-92.9 93.4-100.2 5.1-0.7 10.3-1.1 15.6-1.1 4.6 0.1 9.2 0.4 13.7 0.9z m-26.4 243.1h-0.2c0-0.1 0.1 0 0.2 0z m4.4 0.3h-0.6 0.6z m4.1 0.2h-0.5 0.5z" fill="#FFFFFF" p-id="8617"></path></svg>