<?xml version="1.0" standalone="no"?><!DOCTYPE svg PUBLIC "-//W3C//DTD SVG 1.1//EN" "http://www.w3.org/Graphics/SVG/1.1/DTD/svg11.dtd"><svg t="1533367745435" class="icon" style="" viewBox="0 0 1024 1024" version="1.1" xmlns="http://www.w3.org/2000/svg" p-id="3902" xmlns:xlink="http://www.w3.org/1999/xlink" width="64" height="64"><defs><style type="text/css"></style></defs><path d="M637.16352 313.3696c-8.3712 0-22.32832 8.37632-36.28544 13.95712-25.11872 11.16672-53.03296 25.12384-83.7376 25.12384-27.91424 0-58.61888-13.95712-83.7376-25.12384-16.74752-5.5808-33.49504-13.95712-39.08096-13.95712-92.11392 0-164.69504 189.80864-164.69504 315.4176 0 27.91424 2.79552 53.03808 11.17184 66.9952 8.3712 16.74752 16.74752 19.53792 22.32832 19.53792 36.29056 0 80.95232-16.74752 147.9424-53.03808 33.49504-19.5328 66.99008-27.90912 106.07104-27.90912h2.78528c36.29056 0 67.00032 8.37632 100.49536 27.90912 66.99008 39.08608 108.86656 53.03808 147.9424 53.03808 5.5808 0 16.74752-2.79552 22.3232-19.53792 8.37632-16.74752 11.17184-39.08096 11.17184-66.9952-0.00512-125.60896-75.37152-315.4176-164.69504-315.4176z m-161.8944 214.93248h-36.28544v39.08608c-2.7904 11.1616-11.16672 19.5328-22.32832 19.5328-11.16672 0-22.33344-8.37632-22.33344-22.32832v-36.29056h-36.28544c-11.16672 0-22.33344-8.3712-22.33344-22.3232 0-13.95712 8.37632-19.53792 22.33344-19.53792h36.28544v-36.28544c0-11.16672 8.37632-22.33344 22.33344-22.33344 13.952 0 22.32832 8.3712 22.32832 22.33344v36.28544h36.28544c11.16672 0 22.32832 8.3712 22.32832 22.32832 0 13.952-11.1616 19.5328-22.32832 19.5328z m153.5232 22.33344a41.87136 41.87136 0 1 1 0-83.74272 41.87136 41.87136 0 0 1 0 83.74272z" p-id="3903" fill="#1296db"></path><path d="M514.33984 7.04c-280.17664 0-507.30496 227.12832-507.30496 507.30496s227.12832 507.30496 507.30496 507.30496c280.18176 0 507.31008-227.12832 507.31008-507.30496S794.5216 7.04 514.33984 7.04z m315.42272 708.28544c-13.95712 25.11872-36.28032 41.87136-64.19456 41.87136-44.66176 0-94.90432-16.74752-167.48032-58.61888-27.91424-16.74752-55.82848-22.32832-83.74272-22.32832-30.70464 0-58.61888 5.58592-86.528 22.32832-72.576 41.87136-122.81856 58.61888-167.48032 58.61888-25.12384 0-47.45216-13.95712-61.40928-41.87136-11.16672-22.32832-13.95712-50.24256-13.95712-86.53312 0-142.35648 83.74272-357.28896 206.56128-357.28896 16.74752 0 33.49504 8.37632 55.82336 16.74752 22.33344 8.37632 44.66688 19.53792 66.99008 19.53792 19.53792 0 44.66176-11.16672 66.98496-19.53792 19.54304-8.3712 39.08608-16.74752 55.82848-16.74752 125.61408 0 206.56128 214.93248 206.56128 357.28896 0.00512 36.28544-5.57568 64.2048-13.95712 86.53312z" p-id="3904" fill="#1296db"></path></svg>