<?xml version="1.0" standalone="no"?><!DOCTYPE svg PUBLIC "-//W3C//DTD SVG 1.1//EN" "http://www.w3.org/Graphics/SVG/1.1/DTD/svg11.dtd"><svg t="1533368603457" class="icon" style="" viewBox="0 0 1024 1024" version="1.1" xmlns="http://www.w3.org/2000/svg" p-id="12889" xmlns:xlink="http://www.w3.org/1999/xlink" width="64" height="64"><defs><style type="text/css"></style></defs><path d="M512.000512 2.712785c-281.282315 0-509.289262 228.025367-509.289262 509.287215s228.005924 509.287215 509.289262 509.287215c281.260825 0 509.287215-228.025367 509.287215-509.287215S793.261337 2.712785 512.000512 2.712785z" fill="#E3724B" p-id="12890"></path><path d="M722.230584 760.550843H301.768393c-38.170345 0-69.224618-30.593785-69.224618-68.199265V423.171905h231.891418v22.512737c0 21.723767 20.341281 46.019103 47.563272 46.019103 26.228361 0 47.565319-20.644179 47.565319-46.019103v-22.512737h231.889371v269.178649c0.002047 37.605479-31.052227 68.200288-69.222571 68.200289zM277.569248 468.197378v224.153176c0 12.778024 10.856255 23.173792 24.199145 23.173792h420.462191c13.34289 0 24.198122-10.395768 24.198121-23.173792V468.197378H601.726046c-10.216689 39.349193-46.571688 68.531839-89.727581 68.53184-24.449855 0-47.714721-9.846252-65.50797-27.723412-11.539824-11.595083-19.780509-25.793456-23.957644-40.808428H277.569248z" fill="#FFFFFF" p-id="12891"></path><path d="M661.123854 275.373745H362.877169L232.080218 423.600671h81.095993l94.284363-99.615789h209.057363l94.304829 99.615789h81.09497z" fill="#FFFFFF" p-id="12892"></path></svg>