<?xml version="1.0" standalone="no"?><!DOCTYPE svg PUBLIC "-//W3C//DTD SVG 1.1//EN" "http://www.w3.org/Graphics/SVG/1.1/DTD/svg11.dtd"><svg t="1533367887094" class="icon" style="" viewBox="0 0 1024 1024" version="1.1" xmlns="http://www.w3.org/2000/svg" p-id="4733" xmlns:xlink="http://www.w3.org/1999/xlink" width="64" height="64"><defs><style type="text/css"></style></defs><path d="M512 512m-512 0a512 512 0 1 0 1024 0 512 512 0 1 0-1024 0Z" fill="#FC6657" p-id="4734"></path><path d="M754.101576 802.521891H269.001751c-38.556918 0-69.940455-31.383538-69.940455-69.940455V309.352014c0-38.556918 31.383538-69.940455 69.940455-69.940455h485.099825c38.556918 0 69.940455 31.383538 69.940456 69.940455v423.229422c0 38.556918-31.383538 69.940455-69.940456 69.940455zM269.001751 277.968476c-17.93345 0-31.383538 14.34676-31.383537 31.383538v423.229422c0 17.93345 14.34676 31.383538 31.383537 31.383538h485.099825c17.93345 0 31.383538-14.34676 31.383538-31.383538V309.352014c0-17.93345-14.34676-31.383538-31.383538-31.383538H269.001751z" fill="#FEFEFE" p-id="4735"></path><path d="M428.609457 684.161121c-3.58669 0-7.17338-0.896673-9.863397-2.690018-5.380035-3.58669-8.966725-9.863398-8.966725-16.140105V380.189142c0-7.17338 3.58669-13.450088 9.863397-17.036778 6.276708-3.58669 13.450088-2.690018 19.726795 0.896673l240.308231 154.227671c5.380035 3.58669 8.966725 9.863398 8.966725 17.036777 0 7.17338-3.58669 12.553415-9.863397 16.140105L437.576182 682.367776c-2.690018 0.896673-5.380035 1.793345-8.966725 1.793345z m18.830123-269.001751v217.891418l183.817863-100.42732-183.817863-117.464098zM428.609457 269.898424c-6.276708 0-12.553415-3.58669-16.140105-8.966725l-45.730298-75.320491c-5.380035-8.966725-2.690018-20.623468 6.276708-26.003502 8.966725-5.380035 20.623468-2.690018 26.003502 6.276707l45.730298 75.320491c5.380035 8.966725 2.690018 20.623468-6.276707 26.003502-2.690018 2.690018-6.276708 2.690018-9.863398 2.690018zM595.390543 269.898424c-3.58669 0-7.17338-0.896673-9.863398-2.690018-8.966725-5.380035-11.656743-17.036778-6.276707-26.003502l45.730298-75.320491c5.380035-8.966725 17.036778-11.656743 26.003502-6.276707s11.656743 17.036778 6.276708 26.003502l-45.730298 75.320491c-3.58669 6.276708-9.863398 8.966725-16.140105 8.966725z" fill="#FEFEFE" p-id="4736"></path></svg>