<?xml version="1.0" standalone="no"?><!DOCTYPE svg PUBLIC "-//W3C//DTD SVG 1.1//EN" "http://www.w3.org/Graphics/SVG/1.1/DTD/svg11.dtd"><svg t="1533129322628" class="icon" style="" viewBox="0 0 1024 1024" version="1.1" xmlns="http://www.w3.org/2000/svg" p-id="9272" xmlns:xlink="http://www.w3.org/1999/xlink" width="200" height="200"><defs><style type="text/css"></style></defs><path d="M830.758377 134.727337H193.241623c-61.765079 0-111.971781 50.206702-111.971782 111.971781v535.658554c0 61.765079 50.206702 111.971781 111.971782 111.971781H830.758377c61.765079 0 111.971781-50.206702 111.971782-111.971781V246.699118c0-61.765079-50.567901-111.971781-111.971782-111.971781z m-637.516754 43.343915H830.758377c37.925926 0 68.627866 30.70194 68.627866 68.627866v431.271958l-166.151675-237.669136-261.14709 268.732275-158.56649-130.392945-188.546032 142.673721V246.699118c-0.361199-37.925926 30.340741-68.627866 68.266667-68.627866zM830.758377 850.985538H193.241623c-37.925926 0-68.627866-30.70194-68.627866-68.627866v-6.862787l187.462433-141.590123 163.262082 134.004938 252.117107-259.702293 171.569665 245.254321v28.895944c0.361199 37.925926-30.70194 68.627866-68.266667 68.627866z" fill="#e6e6e6" p-id="9273"></path><path d="M361.560494 475.338272c66.821869 0 121.362963-54.541093 121.362963-121.362963s-54.541093-121.362963-121.362963-121.362963S240.55873 287.153439 240.55873 353.975309s54.179894 121.362963 121.001764 121.362963z m0-199.382011c42.982716 0 78.019048 35.036332 78.019047 78.019048 0 42.982716-35.036332 78.019048-78.019047 78.019047-42.982716 0-78.019048-35.036332-78.019048-78.019047 0.361199-42.982716 35.036332-78.019048 78.019048-78.019048z" fill="#e6e6e6" p-id="9274"></path></svg>