<?xml version="1.0" standalone="no"?><!DOCTYPE svg PUBLIC "-//W3C//DTD SVG 1.1//EN" "http://www.w3.org/Graphics/SVG/1.1/DTD/svg11.dtd"><svg t="1533368903611" class="icon" style="" viewBox="0 0 1024 1024" version="1.1" xmlns="http://www.w3.org/2000/svg" p-id="18393" xmlns:xlink="http://www.w3.org/1999/xlink" width="64" height="64"><defs><style type="text/css"></style></defs><path d="M774.4 83.84 248.96 83.84c-96.64 0-175.36 78.72-175.36 175.36l0 525.44c0 96.64 79.36 175.36 175.36 175.36L774.4 960c62.72 0 118.4-33.92 149.12-83.2-84.48-37.12-290.56-122.24-492.8-155.52l0 0c-21.76-3.84-43.52-6.4-64.64-8.96-1.92 0-3.2-0.64-5.12-0.64-10.24-1.28-20.48-1.92-30.08-3.2-4.48 0-7.68-0.64-12.16-0.64-30.72-1.92-60.16-1.92-88.32 0-5.12 0.64-11.52 0.64-16.64 1.28-1.92 0-3.84 0.64-5.12 0.64-1.28 0-3.2 0.64-4.48 0.64-4.48 0.64-7.68 1.28-12.16 1.92-1.28 0-3.2 0.64-4.48 0.64-5.12 0.64-8.96 1.28-14.08 2.56-2.56 0.64-5.12 1.28-7.68 1.28-3.2 0.64-5.76 1.28-8.96 1.92-3.2 0.64-5.76 1.28-8.96 1.92-5.12 1.28-10.88 3.2-16 4.48-0.64 0-1.28 0-1.92 0.64-2.56 0.64-5.12 1.28-7.04 2.56l0 0-0.64 0c-2.56 0.64-5.12 1.92-7.68 2.56-2.56 0.64-5.12 1.92-7.68 3.2l-0.64 0-0.64 0c-2.56 1.28-5.12 1.92-7.04 3.2-0.64 0-0.64 0.64-1.28 0.64-1.92 0.64-3.2 1.28-3.84 1.92l-0.64 0 0 0c1.92-0.64 10.24-5.12 26.88-11.52-3.2 1.28-5.12 2.56-8.32 3.84 1.92-0.64 4.48-1.92 6.4-3.2 0.64 0 1.28-0.64 1.28-0.64 1.28-0.64 1.92-0.64 2.56-1.28 0.64 0 0.64 0 0.64 0l0 0c14.72-5.76 33.92-13.44 56.32-21.12l0 0c3.2-1.28 6.4-2.56 10.24-3.84 63.36-21.76 152.96-46.08 248.96-54.4 2.56 0 12.8-1.28 14.72-1.28s5.12-0.64 7.04-0.64c23.68-1.28 82.56-1.92 83.2-2.56 7.04 0 26.88 0 44.16 0.64L586.88 332.8 430.72 332.8l0-53.12 346.88 0L777.6 332.8 659.2 332.8l0 312.96c13.44 1.28 27.52 2.56 43.52 3.84 43.52 4.48 92.8 10.88 146.56 19.84 32.64 5.12 65.92 12.8 101.76 19.84L951.04 259.2C949.76 162.56 871.04 83.84 774.4 83.84zM432.64 430.72 337.28 554.24l115.2-5.76 0 53.12C317.44 618.88 204.8 638.08 204.8 638.08l-1.92-50.56c3.2 1.28 122.24-104.96 122.24-104.96L236.16 480l-38.4-38.4 119.68-174.72 48.64 46.72L282.24 437.12l67.84-0.64 33.28-56.32L432.64 430.72z" p-id="18394" fill="#d81e06"></path></svg>