<?xml version="1.0" standalone="no"?><!DOCTYPE svg PUBLIC "-//W3C//DTD SVG 1.1//EN" "http://www.w3.org/Graphics/SVG/1.1/DTD/svg11.dtd"><svg t="1533368857039" class="icon" style="" viewBox="0 0 1024 1024" version="1.1" xmlns="http://www.w3.org/2000/svg" p-id="17971" xmlns:xlink="http://www.w3.org/1999/xlink" width="64" height="64"><defs><style type="text/css"></style></defs><path d="M509.3 961.2c-244.5 0-445.9-199.8-445.9-447s199.3-449 448-449c246.6 0 448 201.8 448 449-0.1 247.2-201.5 447-450.1 447zM394.5 415.8L258.1 766.4l370.1-175.3 136.4-350.6-370.1 175.3zM511.3 576c-34.9 0-61.7-26.8-61.7-61.8s26.7-61.8 61.7-61.8c32.9 0 61.7 26.8 61.7 61.8 0 35.1-28.8 61.8-61.7 61.8z m0 0" fill="#EDDE54" p-id="17972"></path></svg>